<?xml version="1.0" encoding="UTF-8" standalone="no"?>
<!-- Uploaded to: SVG Repo, www.svgrepo.com, Generator: SVG Repo Mixer Tools -->

<svg
    xmlns:inkscape="http://www.inkscape.org/namespaces/inkscape"
    xmlns:sodipodi="http://sodipodi.sourceforge.net/DTD/sodipodi-0.dtd"
    fill="#000000"
    width="800px"
    height="800px"
    viewBox="0 0 24 24"
    data-name="Layer 1"
    version="1.1"
    id="svg4"
    sodipodi:docname="logo.svg"
    inkscape:version="1.2.2 (b0a8486541, 2022-12-01)"
    xmlns="http://www.w3.org/2000/svg"
>
    <defs
        id="defs8"/>
    <sodipodi:namedview
        id="namedview6"
        pagecolor="#ffffff"
        bordercolor="#000000"
        borderopacity="0.25"
        inkscape:showpageshadow="2"
        inkscape:pageopacity="0.0"
        inkscape:pagecheckerboard="0"
        inkscape:deskcolor="#d1d1d1"
        showgrid="false"
        inkscape:zoom="0.295"
        inkscape:cx="401.69492"
        inkscape:cy="401.69492"
        inkscape:window-width="1862"
        inkscape:window-height="1131"
        inkscape:window-x="58"
        inkscape:window-y="32"
        inkscape:window-maximized="1"
        inkscape:current-layer="svg4"/>
    <path
        d="M22,11A4,4,0,0,0,20,7.52,3,3,0,0,0,20,7a3,3,0,0,0-3-3l-.18,0A3,3,0,0,0,12,2.78,3,3,0,0,0,7.18,4L7,4A3,3,0,0,0,4,7a3,3,0,0,0,0,.52,4,4,0,0,0-.55,6.59A4,4,0,0,0,7,20l.18,0A3,3,0,0,0,12,21.22,3,3,0,0,0,16.82,20L17,20a4,4,0,0,0,3.5-5.89A4,4,0,0,0,22,11ZM11,8.55a4.72,4.72,0,0,0-.68-.32,1,1,0,0,0-.64,1.9A2,2,0,0,1,11,12v1.55a4.72,4.72,0,0,0-.68-.32,1,1,0,0,0-.64,1.9A2,2,0,0,1,11,17v2a1,1,0,0,1-1,1,1,1,0,0,1-.91-.6,4.07,4.07,0,0,0,.48-.33,1,1,0,1,0-1.28-1.54A2,2,0,0,1,7,18a2,2,0,0,1-2-2,2,2,0,0,1,.32-1.06A3.82,3.82,0,0,0,6,15a1,1,0,0,0,0-2,1.84,1.84,0,0,1-.69-.13A2,2,0,0,1,5,9.25a3.1,3.1,0,0,0,.46.35,1,1,0,1,0,1-1.74.9.9,0,0,1-.34-.33A.92.92,0,0,1,6,7,1,1,0,0,1,7,6a.76.76,0,0,1,.21,0,3.85,3.85,0,0,0,.19.47,1,1,0,0,0,1.37.37A1,1,0,0,0,9.13,5.5,1.06,1.06,0,0,1,9,5a1,1,0,0,1,2,0Zm7.69,4.32A1.84,1.84,0,0,1,18,13a1,1,0,0,0,0,2,3.82,3.82,0,0,0,.68-.06A2,2,0,0,1,19,16a2,2,0,0,1-2,2,2,2,0,0,1-1.29-.47,1,1,0,0,0-1.28,1.54,4.07,4.07,0,0,0,.48.33A1,1,0,0,1,14,20a1,1,0,0,1-1-1V17a2,2,0,0,1,1.32-1.87,1,1,0,0,0-.64-1.9,4.72,4.72,0,0,0-.68.32V12a2,2,0,0,1,1.32-1.87,1,1,0,0,0-.64-1.9,4.72,4.72,0,0,0-.68.32V5a1,1,0,0,1,2,0,1.06,1.06,0,0,1-.13.5,1,1,0,0,0,.36,1.37A1,1,0,0,0,16.6,6.5,3.85,3.85,0,0,0,16.79,6,.76.76,0,0,1,17,6a1,1,0,0,1,1,1,1,1,0,0,1-.17.55.9.9,0,0,1-.33.31,1,1,0,0,0,1,1.74A2.66,2.66,0,0,0,19,9.25a2,2,0,0,1-.27,3.62Z"
        id="path2"
        style="fill:#ffcc00"/>
</svg>
