<?xml version="1.0" encoding="UTF-8" standalone="no"?>
<!DOCTYPE svg PUBLIC "-//W3C//DTD SVG 1.1//EN"
 "http://www.w3.org/Graphics/SVG/1.1/DTD/svg11.dtd">
<!-- Generated by graphviz version 2.43.0 (0)
 -->
<!-- Title: ZigFormerArchitecture Pages: 1 -->
<svg width="1349pt" height="134pt"
 viewBox="0.00 0.00 1349.00 133.85" xmlns="http://www.w3.org/2000/svg" xmlns:xlink="http://www.w3.org/1999/xlink">
<g id="graph0" class="graph" transform="scale(1 1) rotate(0) translate(4 129.85)">
<title>ZigFormerArchitecture</title>
<polygon fill="white" stroke="transparent" points="-4,4 -4,-129.85 1345,-129.85 1345,4 -4,4"/>
<g id="clust1" class="cluster">
<title>cluster_input</title>
<polygon fill="none" stroke="lightgrey" stroke-dasharray="5,2" points="8,-18.85 8,-79.85 248,-79.85 248,-18.85 8,-18.85"/>
<text text-anchor="middle" x="128" y="-67.85" font-family="Helvetica,Arial,sans-serif" font-size="10.00">Input</text>
</g>
<g id="clust2" class="cluster">
<title>cluster_transformer</title>
<polygon fill="none" stroke="lightgrey" stroke-dasharray="5,2" points="265,-23.85 265,-117.85 981,-117.85 981,-23.85 265,-23.85"/>
<text text-anchor="middle" x="623" y="-105.85" font-family="Helvetica,Arial,sans-serif" font-size="10.00">Transformer (xN)</text>
</g>
<g id="clust3" class="cluster">
<title>cluster_attn</title>
<polygon fill="none" stroke="lightblue" points="271,-32.85 271,-89.85 564,-89.85 564,-32.85 271,-32.85"/>
<text text-anchor="middle" x="417.5" y="-77.85" font-family="Helvetica,Arial,sans-serif" font-size="10.00">Self&#45;Attention</text>
</g>
<g id="clust4" class="cluster">
<title>cluster_ffn</title>
<polygon fill="none" stroke="lightyellow" points="633,-29.85 633,-86.85 926,-86.85 926,-29.85 633,-29.85"/>
<text text-anchor="middle" x="779.5" y="-74.85" font-family="Helvetica,Arial,sans-serif" font-size="10.00">FFN</text>
</g>
<g id="clust5" class="cluster">
<title>cluster_output_head</title>
<polygon fill="none" stroke="lightgrey" stroke-dasharray="5,2" points="998,-48.85 998,-109.85 1141,-109.85 1141,-48.85 998,-48.85"/>
<text text-anchor="middle" x="1069.5" y="-97.85" font-family="Helvetica,Arial,sans-serif" font-size="10.00">Output</text>
</g>
<g id="clust6" class="cluster">
<title>cluster_decoding</title>
<polygon fill="none" stroke="lightgrey" stroke-dasharray="5,2" points="1158,-48.85 1158,-109.85 1333,-109.85 1333,-48.85 1158,-48.85"/>
<text text-anchor="middle" x="1245.5" y="-97.85" font-family="Helvetica,Arial,sans-serif" font-size="10.00">Decoding</text>
</g>
<!-- prompt -->
<g id="node1" class="node">
<title>prompt</title>
<path fill="oldlace" stroke="grey" d="M58.33,-54.35C58.33,-54.35 23.67,-54.35 23.67,-54.35 18.83,-54.35 14,-49.51 14,-44.68 14,-44.68 14,-35.01 14,-35.01 14,-30.18 18.83,-25.35 23.67,-25.35 23.67,-25.35 58.33,-25.35 58.33,-25.35 63.17,-25.35 68,-30.18 68,-35.01 68,-35.01 68,-44.68 68,-44.68 68,-49.51 63.17,-54.35 58.33,-54.35"/>
<text text-anchor="middle" x="41" y="-37.35" font-family="Helvetica,Arial,sans-serif" font-size="10.00">Prompt</text>
</g>
<!-- tokenizer -->
<g id="node2" class="node">
<title>tokenizer</title>
<path fill="oldlace" stroke="grey" d="M138.33,-54.35C138.33,-54.35 100.67,-54.35 100.67,-54.35 95.83,-54.35 91,-49.51 91,-44.68 91,-44.68 91,-35.01 91,-35.01 91,-30.18 95.83,-25.35 100.67,-25.35 100.67,-25.35 138.33,-25.35 138.33,-25.35 143.17,-25.35 148,-30.18 148,-35.01 148,-35.01 148,-44.68 148,-44.68 148,-49.51 143.17,-54.35 138.33,-54.35"/>
<text text-anchor="middle" x="119.5" y="-37.35" font-family="Helvetica,Arial,sans-serif" font-size="10.00">Tokenizer</text>
</g>
<!-- prompt&#45;&gt;tokenizer -->
<g id="edge1" class="edge">
<title>prompt&#45;&gt;tokenizer</title>
<path fill="none" stroke="black" d="M68.33,-39.85C73.32,-39.85 78.61,-39.85 83.82,-39.85"/>
<polygon fill="black" stroke="black" points="83.82,-42.3 90.82,-39.85 83.82,-37.4 83.82,-42.3"/>
</g>
<!-- embeddings -->
<g id="node3" class="node">
<title>embeddings</title>
<path fill="oldlace" stroke="grey" d="M232.33,-54.35C232.33,-54.35 180.67,-54.35 180.67,-54.35 175.83,-54.35 171,-49.51 171,-44.68 171,-44.68 171,-35.01 171,-35.01 171,-30.18 175.83,-25.35 180.67,-25.35 180.67,-25.35 232.33,-25.35 232.33,-25.35 237.17,-25.35 242,-30.18 242,-35.01 242,-35.01 242,-44.68 242,-44.68 242,-49.51 237.17,-54.35 232.33,-54.35"/>
<text text-anchor="middle" x="206.5" y="-37.35" font-family="Helvetica,Arial,sans-serif" font-size="10.00">Embeddings</text>
</g>
<!-- tokenizer&#45;&gt;embeddings -->
<g id="edge2" class="edge">
<title>tokenizer&#45;&gt;embeddings</title>
<path fill="none" stroke="black" d="M148.33,-39.85C153.26,-39.85 158.48,-39.85 163.7,-39.85"/>
<polygon fill="black" stroke="black" points="163.77,-42.3 170.77,-39.85 163.77,-37.4 163.77,-42.3"/>
</g>
<!-- ln1 -->
<g id="node4" class="node">
<title>ln1</title>
<path fill="white" stroke="grey" d="M319.33,-66.35C319.33,-66.35 284.67,-66.35 284.67,-66.35 279.83,-66.35 275,-61.51 275,-56.68 275,-56.68 275,-47.01 275,-47.01 275,-42.18 279.83,-37.35 284.67,-37.35 284.67,-37.35 319.33,-37.35 319.33,-37.35 324.17,-37.35 329,-42.18 329,-47.01 329,-47.01 329,-56.68 329,-56.68 329,-61.51 324.17,-66.35 319.33,-66.35"/>
<text text-anchor="middle" x="302" y="-49.35" font-family="Helvetica,Arial,sans-serif" font-size="10.00">LN 1</text>
</g>
<!-- embeddings&#45;&gt;ln1 -->
<g id="edge3" class="edge">
<title>embeddings&#45;&gt;ln1</title>
<path fill="none" stroke="black" d="M242.05,-44.28C247.19,-44.94 252.55,-45.63 257.85,-46.31"/>
<polygon fill="black" stroke="black" points="257.75,-48.77 265,-47.23 258.37,-43.91 257.75,-48.77"/>
</g>
<!-- residual_1 -->
<g id="node12" class="node">
<title>residual_1</title>
<ellipse fill="lightgrey" stroke="grey" cx="598.5" cy="-50.85" rx="14.5" ry="14.5"/>
<text text-anchor="middle" x="598.5" y="-48.35" font-family="Helvetica,Arial,sans-serif" font-size="10.00">+</text>
</g>
<!-- embeddings&#45;&gt;residual_1 -->
<g id="edge7" class="edge">
<title>embeddings&#45;&gt;residual_1</title>
<path fill="none" stroke="black" stroke-dasharray="5,2" d="M242.43,-25.89C259.76,-20.16 281.17,-14.85 301,-14.85 301,-14.85 301,-14.85 534,-14.85 552.3,-14.85 570.15,-26.3 582.25,-36.28"/>
<polygon fill="black" stroke="black" points="580.8,-38.27 587.7,-41.01 584.01,-34.57 580.8,-38.27"/>
</g>
<!-- qkv -->
<g id="node5" class="node">
<title>qkv</title>
<path fill="white" stroke="grey" d="M396.33,-66.35C396.33,-66.35 361.67,-66.35 361.67,-66.35 356.83,-66.35 352,-61.51 352,-56.68 352,-56.68 352,-47.01 352,-47.01 352,-42.18 356.83,-37.35 361.67,-37.35 361.67,-37.35 396.33,-37.35 396.33,-37.35 401.17,-37.35 406,-42.18 406,-47.01 406,-47.01 406,-56.68 406,-56.68 406,-61.51 401.17,-66.35 396.33,-66.35"/>
<text text-anchor="middle" x="379" y="-49.35" font-family="Helvetica,Arial,sans-serif" font-size="10.00">QKV</text>
</g>
<!-- ln1&#45;&gt;qkv -->
<g id="edge4" class="edge">
<title>ln1&#45;&gt;qkv</title>
<path fill="none" stroke="black" d="M329.23,-51.85C334.28,-51.85 339.64,-51.85 344.88,-51.85"/>
<polygon fill="black" stroke="black" points="344.91,-54.3 351.91,-51.85 344.91,-49.4 344.91,-54.3"/>
</g>
<!-- attn_score -->
<g id="node6" class="node">
<title>attn_score</title>
<path fill="white" stroke="grey" d="M473.33,-66.35C473.33,-66.35 438.67,-66.35 438.67,-66.35 433.83,-66.35 429,-61.51 429,-56.68 429,-56.68 429,-47.01 429,-47.01 429,-42.18 433.83,-37.35 438.67,-37.35 438.67,-37.35 473.33,-37.35 473.33,-37.35 478.17,-37.35 483,-42.18 483,-47.01 483,-47.01 483,-56.68 483,-56.68 483,-61.51 478.17,-66.35 473.33,-66.35"/>
<text text-anchor="middle" x="456" y="-49.35" font-family="Helvetica,Arial,sans-serif" font-size="10.00">Attn</text>
</g>
<!-- qkv&#45;&gt;attn_score -->
<g id="edge5" class="edge">
<title>qkv&#45;&gt;attn_score</title>
<path fill="none" stroke="black" d="M406.23,-51.85C411.28,-51.85 416.64,-51.85 421.88,-51.85"/>
<polygon fill="black" stroke="black" points="421.91,-54.3 428.91,-51.85 421.91,-49.4 421.91,-54.3"/>
</g>
<!-- attn_out -->
<g id="node7" class="node">
<title>attn_out</title>
<path fill="white" stroke="grey" d="M550.33,-66.35C550.33,-66.35 515.67,-66.35 515.67,-66.35 510.83,-66.35 506,-61.51 506,-56.68 506,-56.68 506,-47.01 506,-47.01 506,-42.18 510.83,-37.35 515.67,-37.35 515.67,-37.35 550.33,-37.35 550.33,-37.35 555.17,-37.35 560,-42.18 560,-47.01 560,-47.01 560,-56.68 560,-56.68 560,-61.51 555.17,-66.35 550.33,-66.35"/>
<text text-anchor="middle" x="533" y="-49.35" font-family="Helvetica,Arial,sans-serif" font-size="10.00">Proj</text>
</g>
<!-- attn_score&#45;&gt;attn_out -->
<g id="edge6" class="edge">
<title>attn_score&#45;&gt;attn_out</title>
<path fill="none" stroke="black" d="M483.23,-51.85C488.28,-51.85 493.64,-51.85 498.88,-51.85"/>
<polygon fill="black" stroke="black" points="498.91,-54.3 505.91,-51.85 498.91,-49.4 498.91,-54.3"/>
</g>
<!-- attn_out&#45;&gt;residual_1 -->
<g id="edge8" class="edge">
<title>attn_out&#45;&gt;residual_1</title>
<path fill="none" stroke="black" d="M560.19,-51.43C565.61,-51.35 571.25,-51.26 576.46,-51.18"/>
<polygon fill="black" stroke="black" points="576.73,-53.62 583.69,-51.06 576.66,-48.73 576.73,-53.62"/>
</g>
<!-- ln2 -->
<g id="node8" class="node">
<title>ln2</title>
<path fill="white" stroke="grey" d="M681.33,-63.35C681.33,-63.35 646.67,-63.35 646.67,-63.35 641.83,-63.35 637,-58.51 637,-53.68 637,-53.68 637,-44.01 637,-44.01 637,-39.18 641.83,-34.35 646.67,-34.35 646.67,-34.35 681.33,-34.35 681.33,-34.35 686.17,-34.35 691,-39.18 691,-44.01 691,-44.01 691,-53.68 691,-53.68 691,-58.51 686.17,-63.35 681.33,-63.35"/>
<text text-anchor="middle" x="664" y="-46.35" font-family="Helvetica,Arial,sans-serif" font-size="10.00">LN 2</text>
</g>
<!-- ffn_up -->
<g id="node9" class="node">
<title>ffn_up</title>
<path fill="white" stroke="grey" d="M758.33,-63.35C758.33,-63.35 723.67,-63.35 723.67,-63.35 718.83,-63.35 714,-58.51 714,-53.68 714,-53.68 714,-44.01 714,-44.01 714,-39.18 718.83,-34.35 723.67,-34.35 723.67,-34.35 758.33,-34.35 758.33,-34.35 763.17,-34.35 768,-39.18 768,-44.01 768,-44.01 768,-53.68 768,-53.68 768,-58.51 763.17,-63.35 758.33,-63.35"/>
<text text-anchor="middle" x="741" y="-46.35" font-family="Helvetica,Arial,sans-serif" font-size="10.00">Up</text>
</g>
<!-- ln2&#45;&gt;ffn_up -->
<g id="edge10" class="edge">
<title>ln2&#45;&gt;ffn_up</title>
<path fill="none" stroke="black" d="M691.23,-48.85C696.28,-48.85 701.64,-48.85 706.88,-48.85"/>
<polygon fill="black" stroke="black" points="706.91,-51.3 713.91,-48.85 706.91,-46.4 706.91,-51.3"/>
</g>
<!-- act -->
<g id="node10" class="node">
<title>act</title>
<path fill="white" stroke="grey" d="M835.33,-63.35C835.33,-63.35 800.67,-63.35 800.67,-63.35 795.83,-63.35 791,-58.51 791,-53.68 791,-53.68 791,-44.01 791,-44.01 791,-39.18 795.83,-34.35 800.67,-34.35 800.67,-34.35 835.33,-34.35 835.33,-34.35 840.17,-34.35 845,-39.18 845,-44.01 845,-44.01 845,-53.68 845,-53.68 845,-58.51 840.17,-63.35 835.33,-63.35"/>
<text text-anchor="middle" x="818" y="-46.35" font-family="Helvetica,Arial,sans-serif" font-size="10.00">ReLU</text>
</g>
<!-- ffn_up&#45;&gt;act -->
<g id="edge11" class="edge">
<title>ffn_up&#45;&gt;act</title>
<path fill="none" stroke="black" d="M768.23,-48.85C773.28,-48.85 778.64,-48.85 783.88,-48.85"/>
<polygon fill="black" stroke="black" points="783.91,-51.3 790.91,-48.85 783.91,-46.4 783.91,-51.3"/>
</g>
<!-- ffn_down -->
<g id="node11" class="node">
<title>ffn_down</title>
<path fill="white" stroke="grey" d="M912.33,-63.35C912.33,-63.35 877.67,-63.35 877.67,-63.35 872.83,-63.35 868,-58.51 868,-53.68 868,-53.68 868,-44.01 868,-44.01 868,-39.18 872.83,-34.35 877.67,-34.35 877.67,-34.35 912.33,-34.35 912.33,-34.35 917.17,-34.35 922,-39.18 922,-44.01 922,-44.01 922,-53.68 922,-53.68 922,-58.51 917.17,-63.35 912.33,-63.35"/>
<text text-anchor="middle" x="895" y="-46.35" font-family="Helvetica,Arial,sans-serif" font-size="10.00">Down</text>
</g>
<!-- act&#45;&gt;ffn_down -->
<g id="edge12" class="edge">
<title>act&#45;&gt;ffn_down</title>
<path fill="none" stroke="black" d="M845.23,-48.85C850.28,-48.85 855.64,-48.85 860.88,-48.85"/>
<polygon fill="black" stroke="black" points="860.91,-51.3 867.91,-48.85 860.91,-46.4 860.91,-51.3"/>
</g>
<!-- residual_2 -->
<g id="node13" class="node">
<title>residual_2</title>
<ellipse fill="lightgrey" stroke="grey" cx="960.5" cy="-69.85" rx="14.5" ry="14.5"/>
<text text-anchor="middle" x="960.5" y="-67.35" font-family="Helvetica,Arial,sans-serif" font-size="10.00">+</text>
</g>
<!-- ffn_down&#45;&gt;residual_2 -->
<g id="edge14" class="edge">
<title>ffn_down&#45;&gt;residual_2</title>
<path fill="none" stroke="black" d="M922.19,-57.51C928.06,-59.45 934.18,-61.47 939.73,-63.31"/>
<polygon fill="black" stroke="black" points="938.97,-65.64 946.39,-65.51 940.51,-60.99 938.97,-65.64"/>
</g>
<!-- residual_1&#45;&gt;ln2 -->
<g id="edge9" class="edge">
<title>residual_1&#45;&gt;ln2</title>
<path fill="none" stroke="black" d="M613.28,-50.41C618.15,-50.26 623.87,-50.08 629.65,-49.9"/>
<polygon fill="black" stroke="black" points="630.04,-52.34 636.96,-49.67 629.89,-47.44 630.04,-52.34"/>
</g>
<!-- residual_1&#45;&gt;residual_2 -->
<g id="edge13" class="edge">
<title>residual_1&#45;&gt;residual_2</title>
<path fill="none" stroke="black" stroke-dasharray="5,2" d="M607.16,-62.49C613.18,-70.66 622.32,-81.11 633,-86.85 644.91,-93.25 649.48,-91.85 663,-91.85 663,-91.85 663,-91.85 896,-91.85 909.52,-91.85 913.16,-91.07 926,-86.85 931.2,-85.14 936.58,-82.73 941.48,-80.25"/>
<polygon fill="black" stroke="black" points="942.75,-82.35 947.79,-76.9 940.46,-78.02 942.75,-82.35"/>
</g>
<!-- logits -->
<g id="node14" class="node">
<title>logits</title>
<path fill="oldlace" stroke="grey" d="M1048.33,-84.35C1048.33,-84.35 1013.67,-84.35 1013.67,-84.35 1008.83,-84.35 1004,-79.51 1004,-74.68 1004,-74.68 1004,-65.01 1004,-65.01 1004,-60.18 1008.83,-55.35 1013.67,-55.35 1013.67,-55.35 1048.33,-55.35 1048.33,-55.35 1053.17,-55.35 1058,-60.18 1058,-65.01 1058,-65.01 1058,-74.68 1058,-74.68 1058,-79.51 1053.17,-84.35 1048.33,-84.35"/>
<text text-anchor="middle" x="1031" y="-67.35" font-family="Helvetica,Arial,sans-serif" font-size="10.00">Logits</text>
</g>
<!-- residual_2&#45;&gt;logits -->
<g id="edge15" class="edge">
<title>residual_2&#45;&gt;logits</title>
<path fill="none" stroke="black" d="M981,-69.85C985.78,-69.85 991.03,-69.85 996.27,-69.85"/>
<polygon fill="black" stroke="black" points="996.73,-72.3 1003.73,-69.85 996.73,-67.4 996.73,-72.3"/>
</g>
<!-- softmax -->
<g id="node15" class="node">
<title>softmax</title>
<path fill="oldlace" stroke="grey" d="M1125.33,-84.35C1125.33,-84.35 1090.67,-84.35 1090.67,-84.35 1085.83,-84.35 1081,-79.51 1081,-74.68 1081,-74.68 1081,-65.01 1081,-65.01 1081,-60.18 1085.83,-55.35 1090.67,-55.35 1090.67,-55.35 1125.33,-55.35 1125.33,-55.35 1130.17,-55.35 1135,-60.18 1135,-65.01 1135,-65.01 1135,-74.68 1135,-74.68 1135,-79.51 1130.17,-84.35 1125.33,-84.35"/>
<text text-anchor="middle" x="1108" y="-67.35" font-family="Helvetica,Arial,sans-serif" font-size="10.00">Softmax</text>
</g>
<!-- logits&#45;&gt;softmax -->
<g id="edge16" class="edge">
<title>logits&#45;&gt;softmax</title>
<path fill="none" stroke="black" d="M1058.23,-69.85C1063.28,-69.85 1068.64,-69.85 1073.88,-69.85"/>
<polygon fill="black" stroke="black" points="1073.91,-72.3 1080.91,-69.85 1073.91,-67.4 1073.91,-72.3"/>
</g>
<!-- sampling -->
<g id="node16" class="node">
<title>sampling</title>
<path fill="lightblue" stroke="grey" d="M1240.33,-84.35C1240.33,-84.35 1173.67,-84.35 1173.67,-84.35 1168.83,-84.35 1164,-79.51 1164,-74.68 1164,-74.68 1164,-65.01 1164,-65.01 1164,-60.18 1168.83,-55.35 1173.67,-55.35 1173.67,-55.35 1240.33,-55.35 1240.33,-55.35 1245.17,-55.35 1250,-60.18 1250,-65.01 1250,-65.01 1250,-74.68 1250,-74.68 1250,-79.51 1245.17,-84.35 1240.33,-84.35"/>
<text text-anchor="middle" x="1207" y="-72.65" font-family="Helvetica,Arial,sans-serif" font-size="9.00">Sampling</text>
<text text-anchor="middle" x="1207" y="-62.65" font-family="Helvetica,Arial,sans-serif" font-size="9.00">(Greedy/Top&#45;k/p)</text>
</g>
<!-- softmax&#45;&gt;sampling -->
<g id="edge17" class="edge">
<title>softmax&#45;&gt;sampling</title>
<path fill="none" stroke="black" d="M1135.25,-69.85C1141.81,-69.85 1149.07,-69.85 1156.37,-69.85"/>
<polygon fill="black" stroke="black" points="1156.65,-72.3 1163.65,-69.85 1156.65,-67.4 1156.65,-72.3"/>
</g>
<!-- next_token -->
<g id="node17" class="node">
<title>next_token</title>
<path fill="gold" stroke="grey" d="M1317.33,-84.35C1317.33,-84.35 1282.67,-84.35 1282.67,-84.35 1277.83,-84.35 1273,-79.51 1273,-74.68 1273,-74.68 1273,-65.01 1273,-65.01 1273,-60.18 1277.83,-55.35 1282.67,-55.35 1282.67,-55.35 1317.33,-55.35 1317.33,-55.35 1322.17,-55.35 1327,-60.18 1327,-65.01 1327,-65.01 1327,-74.68 1327,-74.68 1327,-79.51 1322.17,-84.35 1317.33,-84.35"/>
<text text-anchor="middle" x="1300" y="-72.65" font-family="Helvetica,Arial,sans-serif" font-size="9.00">Next</text>
<text text-anchor="middle" x="1300" y="-62.65" font-family="Helvetica,Arial,sans-serif" font-size="9.00">Token</text>
</g>
<!-- sampling&#45;&gt;next_token -->
<g id="edge18" class="edge">
<title>sampling&#45;&gt;next_token</title>
<path fill="none" stroke="black" d="M1250.04,-69.85C1255.29,-69.85 1260.61,-69.85 1265.71,-69.85"/>
<polygon fill="black" stroke="black" points="1265.99,-72.3 1272.99,-69.85 1265.99,-67.4 1265.99,-72.3"/>
</g>
<!-- next_token&#45;&gt;embeddings -->
<g id="edge19" class="edge">
<title>next_token&#45;&gt;embeddings</title>
<path fill="none" stroke="black" stroke-dasharray="1,5" d="M1277.35,-55.26C1249.26,-37.79 1198.13,-10.85 1150,-10.85 1030,-10.85 1030,-10.85 1030,-10.85 987.78,-10.85 977.22,-9.85 935,-9.85 817,-9.85 817,-9.85 817,-9.85 604.98,-9.85 551.72,7.41 340,-3.85 306.52,-5.63 297.22,-2.59 265,-11.85 256.33,-14.34 247.37,-18.07 239.18,-22"/>
<polygon fill="black" stroke="black" points="237.68,-20.01 232.5,-25.33 239.86,-24.4 237.68,-20.01"/>
<text text-anchor="middle" x="741" y="-11.45" font-family="Helvetica,Arial,sans-serif" font-size="8.00">Loop</text>
</g>
</g>
</svg>
