<?xml version="1.0" encoding="UTF-8" standalone="no"?>
<!DOCTYPE svg PUBLIC "-//W3C//DTD SVG 1.1//EN"
    "http://www.w3.org/Graphics/SVG/1.1/DTD/svg11.dtd">
<!-- Generated by graphviz version 2.43.0 (0)
 -->
<!-- Title: ZigFormerWorkflow Pages: 1 -->
<svg width="1012pt" height="229pt"
     viewBox="0.00 0.00 1012.00 229.00" xmlns="http://www.w3.org/2000/svg">
    <g id="graph0" class="graph" transform="scale(1 1) rotate(0) translate(4 225)">
        <title>ZigFormerWorkflow</title>
        <polygon fill="white" stroke="transparent" points="-4,4 -4,-225 1008,-225 1008,4 -4,4"/>
        <g id="clust1" class="cluster">
            <title>cluster_prep</title>
            <polygon fill="none" stroke="lightgrey" stroke-dasharray="5,2"
                     points="8,-140 8,-213 350,-213 350,-140 8,-140"/>
            <text text-anchor="middle" x="179" y="-201" font-family="Helvetica,Arial,sans-serif" font-size="10.00">1.
                Preparation
            </text>
        </g>
        <g id="clust2" class="cluster">
            <title>cluster_training</title>
            <polygon fill="none" stroke="lightgrey" stroke-dasharray="5,2"
                     points="256,-8 256,-132 682,-132 682,-8 256,-8"/>
            <text text-anchor="middle" x="469" y="-120" font-family="Helvetica,Arial,sans-serif" font-size="10.00">2.
                Training
            </text>
        </g>
        <g id="clust3" class="cluster">
            <title>cluster_inference</title>
            <polygon fill="none" stroke="lightgrey" stroke-dasharray="5,2"
                     points="703,-9 703,-132 996,-132 996,-9 703,-9"/>
            <text text-anchor="middle" x="849.5" y="-120" font-family="Helvetica,Arial,sans-serif" font-size="10.00">3.
                Inference
            </text>
        </g>
        <!-- raw_data -->
        <g id="node1" class="node">
            <title>raw_data</title>
            <path fill="oldlace" stroke="grey"
                  d="M64,-182C64,-182 26,-182 26,-182 21,-182 16,-177 16,-172 16,-172 16,-162 16,-162 16,-157 21,-152 26,-152 26,-152 64,-152 64,-152 69,-152 74,-157 74,-162 74,-162 74,-172 74,-172 74,-177 69,-182 64,-182"/>
            <text text-anchor="middle" x="45" y="-170" font-family="Helvetica,Arial,sans-serif" font-size="10.00">Raw
                Text
            </text>
            <text text-anchor="middle" x="45" y="-159" font-family="Helvetica,Arial,sans-serif" font-size="10.00">
                (Corpus)
            </text>
        </g>
        <!-- vocab_builder -->
        <g id="node2" class="node">
            <title>vocab_builder</title>
            <path fill="lightblue" stroke="grey"
                  d="M178.33,-181.5C178.33,-181.5 120.67,-181.5 120.67,-181.5 115.83,-181.5 111,-176.67 111,-171.83 111,-171.83 111,-162.17 111,-162.17 111,-157.33 115.83,-152.5 120.67,-152.5 120.67,-152.5 178.33,-152.5 178.33,-152.5 183.17,-152.5 188,-157.33 188,-162.17 188,-162.17 188,-171.83 188,-171.83 188,-176.67 183.17,-181.5 178.33,-181.5"/>
            <text text-anchor="middle" x="149.5" y="-164.5" font-family="Helvetica,Arial,sans-serif" font-size="10.00">
                Vocab Builder
            </text>
        </g>
        <!-- raw_data&#45;&gt;vocab_builder -->
        <g id="edge1" class="edge">
            <title>raw_data&#45;&gt;vocab_builder</title>
            <path fill="none" stroke="black" d="M74.01,-167C83.17,-167 93.58,-167 103.66,-167"/>
            <polygon fill="black" stroke="black" points="103.91,-169.45 110.91,-167 103.91,-164.55 103.91,-169.45"/>
        </g>
        <!-- dataset -->
        <g id="node3" class="node">
            <title>dataset</title>
            <polygon fill="lightyellow" stroke="grey" points="337,-182 283,-182 283,-152 342,-152 342,-177 337,-182"/>
            <polyline fill="none" stroke="grey" points="337,-182 337,-177 "/>
            <polyline fill="none" stroke="grey" points="342,-177 337,-177 "/>
            <text text-anchor="middle" x="312.5" y="-170" font-family="Helvetica,Arial,sans-serif" font-size="10.00">
                Tokenized
            </text>
            <text text-anchor="middle" x="312.5" y="-159" font-family="Helvetica,Arial,sans-serif" font-size="10.00">
                Dataset
            </text>
        </g>
        <!-- vocab_builder&#45;&gt;dataset -->
        <g id="edge2" class="edge">
            <title>vocab_builder&#45;&gt;dataset</title>
            <path fill="none" stroke="black" d="M188.25,-167C214.67,-167 249.75,-167 275.72,-167"/>
            <polygon fill="black" stroke="black" points="275.79,-169.45 282.79,-167 275.79,-164.55 275.79,-169.45"/>
            <text text-anchor="middle" x="226" y="-169.6" font-family="Helvetica,Arial,sans-serif" font-size="8.00">
                Encode
            </text>
        </g>
        <!-- init_model -->
        <g id="node4" class="node">
            <title>init_model</title>
            <path fill="lightblue" stroke="grey"
                  d="M351,-105C351,-105 274,-105 274,-105 269,-105 264,-100 264,-95 264,-95 264,-85 264,-85 264,-80 269,-75 274,-75 274,-75 351,-75 351,-75 356,-75 361,-80 361,-85 361,-85 361,-95 361,-95 361,-100 356,-105 351,-105"/>
            <text text-anchor="middle" x="312.5" y="-93" font-family="Helvetica,Arial,sans-serif" font-size="10.00">Init
                Model
            </text>
            <text text-anchor="middle" x="312.5" y="-82" font-family="Helvetica,Arial,sans-serif" font-size="10.00">
                (Random Weights)
            </text>
        </g>
        <!-- vocab_builder&#45;&gt;init_model -->
        <g id="edge3" class="edge">
            <title>vocab_builder&#45;&gt;init_model</title>
            <path fill="none" stroke="black" d="M181.16,-152.34C207.43,-139.77 245.37,-121.63 273.55,-108.15"/>
            <polygon fill="black" stroke="black" points="274.87,-110.23 280.13,-105 272.76,-105.81 274.87,-110.23"/>
            <text text-anchor="middle" x="226" y="-141.6" font-family="Helvetica,Arial,sans-serif" font-size="8.00">
                Vocab Size
            </text>
        </g>
        <!-- train_loop -->
        <g id="node5" class="node">
            <title>train_loop</title>
            <path fill="lightblue" stroke="grey"
                  d="M518,-105C518,-105 436,-105 436,-105 431,-105 426,-100 426,-95 426,-95 426,-85 426,-85 426,-80 431,-75 436,-75 436,-75 518,-75 518,-75 523,-75 528,-80 528,-85 528,-85 528,-95 528,-95 528,-100 523,-105 518,-105"/>
            <text text-anchor="middle" x="477" y="-93" font-family="Helvetica,Arial,sans-serif" font-size="10.00">
                Training Loop
            </text>
            <text text-anchor="middle" x="477" y="-82" font-family="Helvetica,Arial,sans-serif" font-size="10.00">
                (Forward/Backprop)
            </text>
        </g>
        <!-- dataset&#45;&gt;train_loop -->
        <g id="edge4" class="edge">
            <title>dataset&#45;&gt;train_loop</title>
            <path fill="none" stroke="black" d="M342.18,-153.41C368.78,-140.81 408.55,-121.96 437.82,-108.09"/>
            <polygon fill="black" stroke="black" points="439,-110.24 444.28,-105.03 436.9,-105.82 439,-110.24"/>
            <text text-anchor="middle" x="393.5" y="-137.6" font-family="Helvetica,Arial,sans-serif" font-size="8.00">
                Batches
            </text>
        </g>
        <!-- init_model&#45;&gt;train_loop -->
        <g id="edge5" class="edge">
            <title>init_model&#45;&gt;train_loop</title>
            <path fill="none" stroke="black" d="M361.38,-90C379.31,-90 399.87,-90 418.58,-90"/>
            <polygon fill="black" stroke="black" points="418.93,-92.45 425.93,-90 418.93,-87.55 418.93,-92.45"/>
        </g>
        <!-- optimizer -->
        <g id="node6" class="node">
            <title>optimizer</title>
            <path fill="white" stroke="grey"
                  d="M663.5,-46C663.5,-46 625.5,-46 625.5,-46 620.5,-46 615.5,-41 615.5,-36 615.5,-36 615.5,-26 615.5,-26 615.5,-21 620.5,-16 625.5,-16 625.5,-16 663.5,-16 663.5,-16 668.5,-16 673.5,-21 673.5,-26 673.5,-26 673.5,-36 673.5,-36 673.5,-41 668.5,-46 663.5,-46"/>
            <text text-anchor="middle" x="644.5" y="-34" font-family="Helvetica,Arial,sans-serif" font-size="10.00">
                Adam
            </text>
            <text text-anchor="middle" x="644.5" y="-23" font-family="Helvetica,Arial,sans-serif" font-size="10.00">
                Optimizer
            </text>
        </g>
        <!-- train_loop&#45;&gt;optimizer -->
        <g id="edge6" class="edge">
            <title>train_loop&#45;&gt;optimizer</title>
            <path fill="none" stroke="black" d="M526.99,-72.54C553.23,-63.18 584.95,-51.87 608.66,-43.42"/>
            <polygon fill="black" stroke="black" points="525.96,-70.3 520.19,-74.96 527.61,-74.92 525.96,-70.3"/>
            <polygon fill="black" stroke="black" points="609.66,-45.66 615.43,-41.01 608.01,-41.05 609.66,-45.66"/>
            <text text-anchor="middle" x="571.5" y="-66.6" font-family="Helvetica,Arial,sans-serif" font-size="8.00">
                Grads/Update
            </text>
        </g>
        <!-- model_file -->
        <g id="node7" class="node">
            <title>model_file</title>
            <polygon fill="gold" stroke="grey"
                     points="669.17,-104.5 615,-104.5 615,-75.5 674,-75.5 674,-99.67 669.17,-104.5"/>
            <polyline fill="none" stroke="grey" points="669.17,-104.5 669.17,-99.67 "/>
            <polyline fill="none" stroke="grey" points="674,-99.67 669.17,-99.67 "/>
            <text text-anchor="middle" x="644.5" y="-87.5" font-family="Helvetica,Arial,sans-serif" font-size="10.00">
                model.bin
            </text>
        </g>
        <!-- train_loop&#45;&gt;model_file -->
        <g id="edge7" class="edge">
            <title>train_loop&#45;&gt;model_file</title>
            <path fill="none" stroke="black" d="M528.1,-90C553.69,-90 584.23,-90 607.46,-90"/>
            <polygon fill="black" stroke="black" points="607.73,-92.45 614.73,-90 607.73,-87.55 607.73,-92.45"/>
            <text text-anchor="middle" x="571.5" y="-92.6" font-family="Helvetica,Arial,sans-serif" font-size="8.00">
                Save
            </text>
        </g>
        <!-- cli_load -->
        <g id="node8" class="node">
            <title>cli_load</title>
            <path fill="lightblue" stroke="grey"
                  d="M770.83,-104.5C770.83,-104.5 723.17,-104.5 723.17,-104.5 718.33,-104.5 713.5,-99.67 713.5,-94.83 713.5,-94.83 713.5,-85.17 713.5,-85.17 713.5,-80.33 718.33,-75.5 723.17,-75.5 723.17,-75.5 770.83,-75.5 770.83,-75.5 775.67,-75.5 780.5,-80.33 780.5,-85.17 780.5,-85.17 780.5,-94.83 780.5,-94.83 780.5,-99.67 775.67,-104.5 770.83,-104.5"/>
            <text text-anchor="middle" x="747" y="-87.5" font-family="Helvetica,Arial,sans-serif" font-size="10.00">Load
                Model
            </text>
        </g>
        <!-- model_file&#45;&gt;cli_load -->
        <g id="edge8" class="edge">
            <title>model_file&#45;&gt;cli_load</title>
            <path fill="none" stroke="black" d="M674.03,-90C683.93,-90 695.23,-90 705.89,-90"/>
            <polygon fill="black" stroke="black" points="706.14,-92.45 713.14,-90 706.14,-87.55 706.14,-92.45"/>
        </g>
        <!-- generate -->
        <g id="node10" class="node">
            <title>generate</title>
            <path fill="lightblue" stroke="grey"
                  d="M873,-63C873,-63 830,-63 830,-63 825,-63 820,-58 820,-53 820,-53 820,-43 820,-43 820,-38 825,-33 830,-33 830,-33 873,-33 873,-33 878,-33 883,-38 883,-43 883,-43 883,-53 883,-53 883,-58 878,-63 873,-63"/>
            <text text-anchor="middle" x="851.5" y="-51" font-family="Helvetica,Arial,sans-serif" font-size="10.00">
                Generate
            </text>
            <text text-anchor="middle" x="851.5" y="-40" font-family="Helvetica,Arial,sans-serif" font-size="10.00">
                (Sampling)
            </text>
        </g>
        <!-- cli_load&#45;&gt;generate -->
        <g id="edge10" class="edge">
            <title>cli_load&#45;&gt;generate</title>
            <path fill="none" stroke="black" d="M780.71,-76.6C791.1,-72.34 802.65,-67.61 813.33,-63.23"/>
            <polygon fill="black" stroke="black" points="814.29,-65.48 819.84,-60.56 812.43,-60.95 814.29,-65.48"/>
        </g>
        <!-- user_prompt -->
        <g id="node9" class="node">
            <title>user_prompt</title>
            <path fill="oldlace" stroke="grey"
                  d="M773.33,-46.5C773.33,-46.5 720.67,-46.5 720.67,-46.5 715.83,-46.5 711,-41.67 711,-36.83 711,-36.83 711,-27.17 711,-27.17 711,-22.33 715.83,-17.5 720.67,-17.5 720.67,-17.5 773.33,-17.5 773.33,-17.5 778.17,-17.5 783,-22.33 783,-27.17 783,-27.17 783,-36.83 783,-36.83 783,-41.67 778.17,-46.5 773.33,-46.5"/>
            <text text-anchor="middle" x="747" y="-29.5" font-family="Helvetica,Arial,sans-serif" font-size="10.00">User
                Prompt
            </text>
        </g>
        <!-- user_prompt&#45;&gt;generate -->
        <g id="edge9" class="edge">
            <title>user_prompt&#45;&gt;generate</title>
            <path fill="none" stroke="black" d="M783.27,-37.51C792.87,-39 803.3,-40.63 813.02,-42.15"/>
            <polygon fill="black" stroke="black" points="812.65,-44.57 819.95,-43.23 813.41,-39.73 812.65,-44.57"/>
        </g>
        <!-- output_text -->
        <g id="node11" class="node">
            <title>output_text</title>
            <path fill="oldlace" stroke="grey"
                  d="M978.33,-62.5C978.33,-62.5 929.67,-62.5 929.67,-62.5 924.83,-62.5 920,-57.67 920,-52.83 920,-52.83 920,-43.17 920,-43.17 920,-38.33 924.83,-33.5 929.67,-33.5 929.67,-33.5 978.33,-33.5 978.33,-33.5 983.17,-33.5 988,-38.33 988,-43.17 988,-43.17 988,-52.83 988,-52.83 988,-57.67 983.17,-62.5 978.33,-62.5"/>
            <text text-anchor="middle" x="954" y="-45.5" font-family="Helvetica,Arial,sans-serif" font-size="10.00">
                Output Text
            </text>
        </g>
        <!-- generate&#45;&gt;output_text -->
        <g id="edge11" class="edge">
            <title>generate&#45;&gt;output_text</title>
            <path fill="none" stroke="black" d="M883.2,-48C892.49,-48 902.84,-48 912.66,-48"/>
            <polygon fill="black" stroke="black" points="912.69,-50.45 919.69,-48 912.69,-45.55 912.69,-50.45"/>
        </g>
    </g>
</svg>
